<svg id="visual" viewBox="0 0 900 600" width="900" height="600" xmlns="http://www.w3.org/2000/svg" xmlns:xlink="http://www.w3.org/1999/xlink" version="1.1"><rect x="0" y="0" width="900" height="600" fill="#000000"></rect><path d="M0 461L21.5 470C43 479 86 497 128.8 492.7C171.7 488.3 214.3 461.7 257.2 457C300 452.3 343 469.7 385.8 478.3C428.7 487 471.3 487 514.2 488C557 489 600 491 642.8 491.3C685.7 491.7 728.3 490.3 771.2 486.5C814 482.7 857 476.3 878.5 473.2L900 470L900 601L878.5 601C857 601 814 601 771.2 601C728.3 601 685.7 601 642.8 601C600 601 557 601 514.2 601C471.3 601 428.7 601 385.8 601C343 601 300 601 257.2 601C214.3 601 171.7 601 128.8 601C86 601 43 601 21.5 601L0 601Z" fill="#340E71" stroke-linecap="round" stroke-linejoin="miter"></path></svg>